# xmcd
#
# Track frame offsets:
#	150
#	21001
#	35781
#	55964
#	71159
#	87232
#	103809
#	122757
#	135329
#	152058
#	174314
#	193013
#
# Disc length: 2788 seconds
#
# Revision: 1
# Processed by: cddbd v1.5.2PL0 Copyright (c) Steve Scherf et al.
# Submitted via: audiograbber 1.83.01
#
DISCID=a30ae20c
DTITLE=Rihanna - Good Girl Gone Bad
DYEAR=2007
DGENRE=
TTITLE0=Umbrella
TTITLE1=Push Up On Me
TTITLE2=Don't Stop The Music
TTITLE3=Breakin' Dishes
TTITLE4=Shut Up And Drive
TTITLE5=Hate That I Love You
TTITLE6=Say It
TTITLE7=Sell Me Candy
TTITLE8=Lemme Get That
TTITLE9=Rehab
TTITLE10=Question Existing
TTITLE11=Good Girl Gone Bad
EXTD=
EXTT0=
EXTT1=
EXTT2=
EXTT3=
EXTT4=
EXTT5=
EXTT6=
EXTT7=
EXTT8=
EXTT9=
EXTT10=
EXTT11=
PLAYORDER=
